<svg>
<g>
	<path d="M29.326,2.924c-0.336-0.17-0.739-0.137-1.044,0.086l-14.61,10.747H1c-0.552,0-1,0.448-1,1c0,0.552,0.448,1,1,1h12V24.2
		c0,0.552,0.448,1,1,1c0.552,0,1-0.448,1-1v-8.936l12.875-9.47v33.28l-13.282-9.77c-0.172-0.126-0.379-0.194-0.593-0.194H2v-7.775
		c0-0.552-0.448-1-1-1c-0.552,0-1,0.448-1,1v8.775c0,0.552,0.448,1,1,1h12.672l14.61,10.747c0.175,0.128,0.383,0.194,0.593,0.194
		c0.154,0,0.309-0.036,0.451-0.108c0.337-0.17,0.549-0.515,0.549-0.892V3.816C29.875,3.439,29.663,3.094,29.326,2.924z"/>
	<path d="M40.041,21.671l4.533-4.532c0.391-0.391,0.391-1.023,0-1.414c-0.391-0.391-1.023-0.391-1.414,0l-4.532,4.533l-4.533-4.533
		c-0.391-0.391-1.023-0.391-1.414,0c-0.391,0.391-0.391,1.023,0,1.414l4.533,4.532l-4.533,4.533c-0.391,0.391-0.391,1.023,0,1.414
		c0.195,0.195,0.451,0.293,0.707,0.293c0.256,0,0.512-0.098,0.707-0.293l4.533-4.532l4.532,4.532
		c0.195,0.195,0.451,0.293,0.707,0.293c0.256,0,0.512-0.098,0.707-0.293c0.391-0.391,0.391-1.023,0-1.414L40.041,21.671z"/>
</g>
</svg>
